PathFileType	3	(X/Y/Z)	squats_2__view1_aligned.trc
DataRate	CameraRate	NumFrames	NumMarkers	Units	OrigDataRate	OrigDataStartFrame	OrigNumFrames
100.0	100.0	17	19	mm	100.0	726	1550
Frame#	Time	pelvis			neck			head			hip_left			hip_right			knee_left			knee_right			ankle_left			ankle_right			heel_left			heel_right			toe_left			toe_right			shoulder_left			shoulder_right			elbow_left			elbow_right			wrist_left			wrist_right			
		X1	Y1	Z1	X2	Y2	Z2	X3	Y3	Z3	X4	Y4	Z4	X5	Y5	Z5	X6	Y6	Z6	X7	Y7	Z7	X8	Y8	Z8	X9	Y9	Z9	X10	Y10	Z10	X11	Y11	Z11	X12	Y12	Z12	X13	Y13	Z13	X14	Y14	Z14	X15	Y15	Z15	X16	Y16	Z16	X17	Y17	Z17	X18	Y18	Z18	X19	Y19	Z19	
726	7.25000	97.378863	714.990260	60.227808	73.787680	1222.463938	-186.437287	74.458631	1331.018350	-323.569831	19.178252	721.018683	66.622687	175.579484	708.961837	53.832939	-134.717675	450.384259	-211.621032	222.946815	431.340964	-255.031593	-94.858015	168.218520	60.149674	210.257021	134.119820	2.232665	-80.636883	136.462250	107.609041	207.926188	104.577098	53.841948	-167.044319	84.014088	-86.252839	216.431676	35.939976	-154.557134	-100.380328	1172.116545	-125.929588	252.663410	1176.182956	-150.439036	-246.183392	932.164864	-90.413204	339.645057	902.013734	-147.886047	-267.107141	799.907334	-303.059857	361.082249	761.418900	-358.579879
727	7.26000	98.132739	709.717392	60.562390	73.879435	1215.721265	-187.237281	74.656414	1323.610811	-324.709967	19.926677	715.508056	66.935813	176.338810	703.926728	54.188975	-133.594405	449.121233	-215.293782	224.624032	430.421153	-257.962247	-92.332735	168.459449	57.957553	211.424493	134.285999	0.786125	-78.029061	136.861019	105.497041	209.046043	104.833559	52.480848	-164.566541	84.226431	-88.213294	217.512409	36.052665	-155.856492	-100.166522	1165.715695	-127.026355	252.559540	1169.840238	-151.046572	-246.172094	925.743142	-92.657922	340.240537	895.842980	-149.018252	-264.692879	794.384260	-306.209794	360.933165	754.994133	-359.675215
728	7.27000	98.886614	704.444524	60.896971	73.971189	1208.978592	-188.037276	74.854196	1316.203272	-325.850102	20.675101	709.997429	67.248939	177.098135	698.891619	54.545011	-132.471134	447.858208	-218.966531	226.301250	429.501342	-260.892901	-89.807456	168.700377	55.765432	212.591965	134.452179	-0.660415	-75.421240	137.259788	103.385040	210.165898	105.090021	51.119748	-162.088762	84.438775	-90.173748	218.593141	36.165355	-157.155851	-99.952716	1159.314844	-128.123123	252.455670	1163.497520	-151.654109	-246.160796	919.321420	-94.902640	340.836016	889.672226	-150.150456	-262.278617	788.861186	-309.359731	360.784082	748.569367	-360.770552
729	7.28000	99.640490	699.171656	61.231553	74.062943	1202.235919	-188.837270	75.051978	1308.795733	-326.990238	21.423526	704.486801	67.562064	177.857461	693.856510	54.901048	-131.347864	446.595182	-222.639280	227.978467	428.581531	-263.823554	-87.282176	168.941305	53.573310	213.759437	134.618359	-2.106956	-72.813418	137.658557	101.273040	211.285753	105.346482	49.758649	-159.610984	84.651119	-92.134203	219.673873	36.278044	-158.455209	-99.738910	1152.913994	-129.219890	252.351800	1157.154802	-152.261645	-246.149498	912.899699	-97.147357	341.431496	883.501471	-151.282661	-259.864355	783.338112	-312.509668	360.634998	742.144600	-361.865889
730	7.29000	100.394366	693.898788	61.566134	74.154698	1195.493246	-189.637264	75.249760	1301.388194	-328.130373	22.171950	698.976174	67.875190	178.616786	688.821402	55.257084	-130.224594	445.332156	-226.312029	229.655684	427.661720	-266.754208	-84.756896	169.182233	51.381189	214.926909	134.784538	-3.553496	-70.205596	138.057326	99.161039	212.405607	105.602943	48.397549	-157.133206	84.863463	-94.094657	220.754605	36.390734	-159.754568	-99.525104	1146.513143	-130.316658	252.247930	1150.812084	-152.869181	-246.138200	906.477977	-99.392075	342.026975	877.330717	-152.414865	-257.450093	777.815038	-315.659605	360.485914	735.719833	-362.961225
731	7.30000	101.148241	688.625920	61.900716	74.246452	1188.750573	-190.437259	75.447542	1293.980655	-329.270509	22.920375	693.465546	68.188316	179.376112	683.786293	55.613120	-129.101324	444.069130	-229.984778	231.332901	426.741909	-269.684861	-82.231616	169.423161	49.189068	216.094381	134.950718	-5.000037	-67.597775	138.456095	97.049039	213.525462	105.859405	47.036449	-154.655428	85.075806	-96.055112	221.835338	36.503423	-161.053927	-99.311298	1140.112293	-131.413425	252.144060	1144.469366	-153.476718	-246.126902	900.056255	-101.636793	342.622455	871.159963	-153.547070	-255.035832	772.291964	-318.809542	360.336831	729.295067	-364.056562
732	7.31000	101.902117	683.353052	62.235297	74.338206	1182.007901	-191.237253	75.645325	1286.573116	-330.410644	23.668799	687.954919	68.501441	180.135438	678.751184	55.969157	-127.978054	442.806104	-233.657528	233.010119	425.822098	-272.615515	-79.706337	169.664089	46.996946	217.261853	135.116897	-6.446577	-64.989953	138.854865	94.937039	214.645317	106.115866	45.675349	-152.177649	85.288150	-98.015566	222.916070	36.616113	-162.353285	-99.097492	1133.711442	-132.510193	252.040190	1138.126647	-154.084254	-246.115604	893.634534	-103.881511	343.217934	864.989209	-154.679274	-252.621570	766.768890	-321.959479	360.187747	722.870300	-365.151898
733	7.32000	102.655992	678.080184	62.569879	74.429961	1175.265228	-192.037248	75.843107	1279.165577	-331.550780	24.417224	682.444292	68.814567	180.894763	673.716076	56.325193	-126.854783	441.543079	-237.330277	234.687336	424.902286	-275.546168	-77.181057	169.905018	44.804825	218.429325	135.283077	-7.893117	-62.382132	139.253634	92.825038	215.765171	106.372328	44.314249	-149.699871	85.500494	-99.976020	223.996802	36.728802	-163.652644	-98.883686	1127.310591	-133.606960	251.936320	1131.783929	-154.691790	-246.104306	887.212812	-106.126228	343.813414	858.818454	-155.811478	-250.207308	761.245816	-325.109416	360.038664	716.445533	-366.247235
734	7.33000	103.409868	672.807316	62.904460	74.521715	1168.522555	-192.837242	76.040889	1271.758038	-332.690915	25.165648	676.933664	69.127692	181.654089	668.680967	56.681229	-125.731513	440.280053	-241.003026	236.364553	423.982475	-278.476822	-74.655777	170.145946	42.612704	219.596797	135.449257	-9.339658	-59.774310	139.652403	90.713038	216.885026	106.628789	42.953149	-147.222093	85.712837	-101.936475	225.077535	36.841492	-164.952002	-98.669880	1120.909741	-134.703727	251.832450	1125.441211	-155.299327	-246.093008	880.791090	-108.370946	344.408893	852.647700	-156.943683	-247.793046	755.722742	-328.259353	359.889580	710.020767	-367.342571
735	7.34000	104.163743	667.534448	63.239042	74.613469	1161.779882	-193.637236	76.238671	1264.350499	-333.831050	25.914073	671.423037	69.440818	182.413414	663.645858	57.037266	-124.608243	439.017027	-244.675775	238.041771	423.062664	-281.407475	-72.130498	170.386874	40.420583	220.764269	135.615436	-10.786198	-57.166489	140.051172	88.601037	218.004881	106.885251	41.592049	-144.744314	85.925181	-103.896929	226.158267	36.954181	-166.251361	-98.456074	1114.508890	-135.800495	251.728579	1119.098493	-155.906863	-246.081710	874.369369	-110.615664	345.004373	846.476946	-158.075887	-245.378784	750.199668	-331.409290	359.740497	703.596000	-368.437908
736	7.35000	104.256193	662.886671	63.851525	74.562054	1155.207363	-194.623773	76.196531	1257.206815	-335.204144	25.921720	666.600389	69.955434	182.590681	659.172952	57.747598	-123.710306	437.959432	-247.352004	239.508771	422.287522	-282.912804	-70.048089	170.668311	38.736700	221.408608	135.815858	-11.288868	-55.087875	140.412632	86.972456	218.568225	107.163873	41.151251	-142.826897	86.518105	-105.472950	226.590948	37.162128	-166.644644	-98.533290	1108.424013	-137.115013	251.616326	1112.457985	-156.490277	-245.525147	867.623511	-113.022718	344.462680	839.822927	-158.238598	-244.236390	744.321277	-334.326877	359.046845	697.712060	-369.022909
737	7.36000	104.348642	658.238894	64.464008	74.510639	1148.634843	-195.610310	76.154391	1250.063132	-336.577237	25.929368	661.777740	70.470050	182.767948	654.700046	58.457931	-122.812370	436.901838	-250.028233	240.975770	421.512380	-284.418132	-67.965680	170.949748	37.052817	222.052947	136.016279	-11.791537	-53.009260	140.774092	85.343875	219.131568	107.442494	40.710454	-140.909479	87.111029	-107.048970	227.023629	37.370075	-167.037927	-98.610505	1102.339135	-138.429530	251.504073	1105.817477	-157.073692	-244.968585	860.877653	-115.429773	343.920987	833.168909	-158.401309	-243.093995	738.442886	-337.244464	358.353194	691.828120	-369.607911
738	7.37000	104.441091	653.591117	65.076491	74.459223	1142.062324	-196.596847	76.112251	1242.919448	-337.950331	25.937016	656.955092	70.984666	182.945215	650.227139	59.168263	-121.914433	435.844243	-252.704462	242.442770	420.737239	-285.923461	-65.883271	171.231185	35.368934	222.697286	136.216701	-12.294207	-50.930646	141.135552	83.715294	219.694912	107.721116	40.269657	-138.992061	87.703954	-108.624991	227.456310	37.578022	-167.431211	-98.687721	1096.254257	-139.744048	251.391820	1099.176969	-157.657106	-244.412022	854.131795	-117.836827	343.379294	826.514891	-158.564020	-241.951601	732.564496	-340.162052	357.659542	685.944181	-370.192913
739	7.38000	104.533540	648.943340	65.688974	74.407808	1135.489804	-197.583384	76.070110	1235.775765	-339.323424	25.944663	652.132444	71.499281	183.122482	645.754233	59.878596	-121.016497	434.786648	-255.380691	243.909770	419.962097	-287.428790	-63.800862	171.512622	33.685051	223.341625	136.417122	-12.796876	-48.852032	141.497012	82.086712	220.258256	107.999738	39.828859	-137.074644	88.296878	-110.201012	227.888991	37.785969	-167.824494	-98.764937	1090.169379	-141.058566	251.279566	1092.536461	-158.240521	-243.855460	847.385937	-120.243882	342.837601	819.860872	-158.726730	-240.809206	726.686105	-343.079639	356.965891	680.060241	-370.777914
740	7.39000	104.625989	644.295563	66.301457	74.356393	1128.917285	-198.569921	76.027970	1228.632081	-340.696517	25.952311	647.309796	72.013897	183.299749	641.281327	60.588929	-120.118560	433.729053	-258.056919	245.376770	419.186955	-288.934118	-61.718453	171.794059	32.001168	223.985965	136.617544	-13.299546	-46.773418	141.858473	80.458131	220.821600	108.278359	39.388062	-135.157226	88.889802	-111.777032	228.321672	37.993916	-168.217777	-98.842152	1084.084501	-142.373083	251.167313	1085.895953	-158.823935	-243.298898	840.640079	-122.650936	342.295908	813.206854	-158.889441	-239.666812	720.807714	-345.997227	356.272239	674.176301	-371.362916
741	7.40000	104.718439	639.647786	66.913940	74.304978	1122.344765	-199.556458	75.985830	1221.488398	-342.069611	25.959959	642.487148	72.528513	183.477016	636.808420	61.299261	-119.220624	432.671459	-260.733148	246.843770	418.411813	-290.439447	-59.636044	172.075496	30.317285	224.630304	136.817965	-13.802215	-44.694804	142.219933	78.829550	221.384944	108.556981	38.947265	-133.239809	89.482727	-113.353053	228.754353	38.201863	-168.611060	-98.919368	1077.999623	-143.687601	251.055060	1079.255445	-159.407349	-242.742335	833.894221	-125.057991	341.754215	806.552835	-159.052152	-238.524417	714.929324	-348.914814	355.578588	668.292361	-371.947917
742	7.41000	104.810888	635.000010	67.526424	74.253562	1115.772246	-200.542995	75.943690	1214.344714	-343.442704	25.967606	637.664499	73.043129	183.654283	632.335514	62.009594	-118.322687	431.613864	-263.409377	248.310770	417.636671	-291.944776	-57.553635	172.356933	28.633402	225.274643	137.018387	-14.304885	-42.616190	142.581393	77.200968	221.948287	108.835603	38.506467	-131.322391	90.075651	-114.929073	229.187034	38.409810	-169.004344	-98.996584	1071.914746	-145.002119	250.942807	1072.614937	-159.990764	-242.185773	827.148363	-127.465045	341.212523	799.898817	-159.214863	-237.382023	709.050933	-351.832401	354.884936	662.408421	-372.532919
